<svg width="30" height="30" viewBox="0 0 30 30" fill="none" xmlns="http://www.w3.org/2000/svg">
<path fill-rule="evenodd" clip-rule="evenodd" d="M15 30C23.2843 30 30 23.2843 30 15C30 6.71573 23.2843 0 15 0C6.71573 0 0 6.71573 0 15C0 23.2843 6.71573 30 15 30ZM15 21.5386C18.6111 21.5386 21.5385 18.6112 21.5385 15.0001C21.5385 11.389 18.6111 8.46167 15 8.46167C11.3889 8.46167 8.46154 11.389 8.46154 15.0001C8.46154 18.6112 11.3889 21.5386 15 21.5386Z" fill="#FEBC39"/>
<path d="M14.7028 26.9232L24.3182 26.5386V27.3078L25.1591 28.2956L27.6818 30.0001H15.0874L14.7028 26.9232Z" fill="#FEBC39"/>
<path d="M27.6923 29.887C27.6923 30.5054 24.868 28.3939 24.2308 28.3939C23.5935 28.3939 23.0769 27.8926 23.0769 27.2741C23.0769 26.6557 23.9781 26.1543 24.6154 26.1543C26.1538 27.2741 27.6923 29.2685 27.6923 29.887Z" fill="#FEBC39"/>
</svg>
